<svg id="Layer_1" enable-background="new 0 0 512.205 512.205" height="512" viewBox="0 0 512.205 512.205" width="512" xmlns="http://www.w3.org/2000/svg"><g><circle cx="256.102" cy="140.1" fill="#01d0fb" r="132.396"/><path d="m256.102 7.705c-5.073 0-10.076.295-15 .851 66.057 7.45 117.396 63.497 117.396 131.545s-51.34 124.094-117.396 131.545c4.924.555 9.927.851 15 .851 73.12 0 132.396-59.275 132.396-132.395s-59.275-132.397-132.396-132.397z" fill="#01c0fa"/><path d="m235.707 81.163c1.883 5.631-.353 11.91-3.901 16.664-3.554 4.76-8.314 8.45-12.433 12.722s-7.744 9.515-8.073 15.446c-.3 5.372 2.13 10.456 3.795 15.576 5.037 14.322-3.366 23.519-18.059 19.136-20.095-7.061-26.356-30.157-30.31-49.04-2.236-9.821-4.654-19.765-9.627-28.521-4.09-6.643-8.02-11.863-10.421-17.6 21.001-30.763 54.624-52.211 93.413-56.883h.006c2.024.73 3.831 2.001 4.896 3.848 4.837 10.092-7.938 22.925-13.198 31.051-4.754 7.079-8.22 16.235-4.713 24.002 2.211 4.914 6.919 8.486 8.625 13.599z" fill="#00f2a6"/><path d="m316.063 199.113c-4.531 9.032-7.391 19.43-5.084 29.274 1.712 7.297 6.102 13.681 8.467 20.795.747 2.201 1.189 4.372 1.342 6.461-8.044 4.513-16.6 8.209-25.567 10.98-1.071-1.271-2.183-2.554-3.66-3.578-7.85-5.419-18.683-6.078-25.126-13.634-7.497-8.779-5.319-23.867-14.517-30.851-4.172-3.166-9.997-3.948-13.516-7.832-3.478-3.831-3.689-9.527-3.713-14.705-.029-7.043-.053-14.152 1.43-21.036 3.489-15.888 12.275-22.101 27.238-26.485 12.857-4.195 25.714-8.385 38.577-12.575 8.938-3.048 19.748-6.025 28.221-.365 5.702 3.889 8.344 11.221 8.044 18.118-1.288 17.342-14.91 30.37-22.136 45.433z" fill="#00f2a6"/><path d="m314.761 238.412c-9.182 8.284-19.529 15.3-30.768 20.773 2.656 1.073 5.244 2.257 7.568 3.861 1.477 1.024 2.589 2.307 3.66 3.578 8.968-2.771 17.523-6.467 25.567-10.98-.153-2.089-.594-4.26-1.342-6.461-1.233-3.711-3.017-7.224-4.685-10.771z" fill="#05e39c"/><path d="m370.075 72.69c-4.59 6.025-13.593 8.008-25.096 6.555-8.42-.765-17.971-1.3-24.167 4.454-1.495 1.389-2.819 3.16-4.79 3.701-4.684 1.077-7.579-3.854-8.562-7.785-3.378-11.221-3.448-23.614.971-34.47 3.101-7.632 8.509-14.334 15.405-18.824 19.018 11.345 34.947 27.321 46.239 46.369z" fill="#00f2a6"/><path d="m323.836 26.322c-4.968 3.234-9.145 7.627-12.262 12.678 13.132 11.111 24.067 24.735 32.07 40.129.447.038.893.077 1.335.117 11.504 1.453 20.507-.53 25.096-6.555-11.292-19.049-27.221-35.025-46.239-46.369z" fill="#05e39c"/><path d="m241.102 206.705-229.245-70.143c-2.115-.647-4.254.935-4.254 3.147v283.773c0 1.412.901 2.667 2.238 3.118l231.262 78.103v-297.998z" fill="#fe646f"/><path d="m271.102 206.705 229.246-70.142c2.115-.647 4.254.935 4.254 3.147v283.773c0 1.412-.901 2.667-2.238 3.118l-231.262 78.103z" fill="#fe646f"/><g><path d="m500.348 136.562-25.746 7.877v291.537l27.762-9.376c1.338-.452 2.238-1.707 2.238-3.118v-283.772c0-2.213-2.139-3.795-4.254-3.148z" fill="#fd4755"/></g><path d="m280.102 504.705h-48c-3.314 0-6-2.686-6-6v-286c0-3.314 2.686-6 6-6h48c3.314 0 6 2.686 6 6v286c0 3.313-2.686 6-6 6z" fill="#7ca1b1"/><path d="m280.102 206.705h-30c3.314 0 6 2.686 6 6v286c0 3.314-2.686 6-6 6h30c3.314 0 6-2.686 6-6v-286c0-3.314-2.686-6-6-6z" fill="#678d98"/><path d="m126.675 265.108 7.838 18.249c2.124 4.945 6.23 9.132 10.979 11.197l17.526 7.62c11.96 5.2 16.735 21.373 8.081 27.368l-12.682 8.785c-3.437 2.381-5.005 6.787-4.194 11.782l2.994 18.435c2.043 12.58-10.459 18.117-21.157 9.369l-15.676-12.819c-4.248-3.474-9.323-4.938-13.571-3.915l-15.676 3.773c-10.697 2.575-23.2-10.177-21.157-21.578l2.994-16.708c.811-4.527-.757-9.839-4.194-14.202l-12.68-16.101c-8.654-10.989-3.879-24.406 8.081-22.705l17.526 2.493c4.749.676 8.855-1.143 10.979-4.862l7.838-13.726c5.348-9.366 20.802-4.908 26.151 7.545z" fill="#fec165"/><path d="m163.018 302.175-17.526-7.621c-4.749-2.065-8.855-6.252-10.979-11.197l-7.838-18.249c-5.349-12.453-20.803-16.912-26.151-7.545l-1.882 3.296 5.956 13.867c2.124 4.945 6.23 9.132 10.979 11.197l7.122 3.097c16.216 7.051 22.691 28.979 10.957 37.107l-5.154 3.57c-3.437 2.381-5.005 6.787-4.194 11.782l2.994 18.436c.628 3.868-.122 7.066-1.769 9.392l10.527 8.609c10.697 8.748 23.2 3.211 21.157-9.369l-2.994-18.436c-.811-4.995.757-9.402 4.194-11.782l12.682-8.785c8.654-5.996 3.879-22.169-8.081-27.369z" fill="#fdb441"/><g><path d="m62.598 342.053c-1.442 8.051 1.884 17.032 8.681 23.439 6.325 5.963 14.406 8.486 21.614 6.753l15.676-3.772c1.461-.354 4.188.073 7.067 2.429l15.676 12.819c7.442 5.985 16.747 7.991 24.81 3.518 6.615-3.814 9.872-11.438 8.499-19.895l-2.994-18.436c-.332-2.04.075-3.731 1.061-4.415l12.683-8.785c5.512-3.817 8.259-10.222 7.537-17.57-.95-9.68-7.74-18.859-16.897-22.841l-17.528-7.621c-2.996-1.303-5.709-4.092-7.077-7.279l-7.838-18.248c-4.152-9.668-13.351-16.526-22.888-17.066-7.106-.42-13.307 2.875-16.667 8.762l-7.838 13.726c-.717 1.254-2.25 1.32-3.41 1.156l-17.526-2.493c-7.887-1.125-14.796 2.044-18.496 8.468-4.426 7.685-3.065 18.009 3.467 26.303l12.683 16.104c2.068 2.626 3.129 5.859 2.702 8.238zm-.606-50.331c-2.937-3.729-3.355-7.619-2.252-9.536.231-.4.84-1.462 3.384-1.104l17.526 2.493c7.797 1.106 14.898-2.175 18.549-8.568l7.838-13.726c.248-.435.732-1.345 2.793-1.224 3.317.188 7.802 3 9.953 8.011l7.838 18.248c2.86 6.658 8.423 12.309 14.88 15.115l17.526 7.621c4.743 2.062 7.591 6.868 7.952 10.55.124 1.272.026 2.96-1.15 3.775l-12.684 8.785c-5.873 4.069-8.611 11.229-7.325 19.149l2.994 18.436c.212 1.302.339 3.617-1.187 4.497-1.471.849-4.548.54-7.819-2.136l-15.676-12.819c-6.038-4.834-13.045-6.986-20.073-5.401l-15.676 3.772c-2.207.53-5.267-.682-7.815-3.084-3.057-2.882-4.747-6.852-4.204-9.878l2.994-16.708c1.184-6.605-.941-14.144-5.685-20.166z"/><path d="m454.141 343.181c-1.295-3.934-5.536-6.073-9.47-4.776l-91.296 30.082c-3.935 1.296-6.073 5.536-4.776 9.47 1.287 3.971 5.642 6.07 9.47 4.776l91.296-30.082c3.935-1.296 6.073-5.536 4.776-9.47z"/><path d="m444.672 368.487-91.296 30.082c-3.935 1.296-6.073 5.536-4.776 9.47 1.287 3.971 5.642 6.07 9.47 4.776l91.296-30.082c3.935-1.296 6.073-5.536 4.776-9.47-1.296-3.933-5.537-6.073-9.47-4.776z"/><path d="m504.602 186.577c4.143 0 7.5-3.357 7.5-7.5v-39.367c0-3.405-1.635-6.648-4.372-8.674-2.738-2.026-6.315-2.643-9.576-1.646l-103.741 31.742c17.888-114.72-107.182-200.442-207.649-142.561-8.449 5.226-1.339 17.653 7.445 13.021 13.64-7.798 28.686-12.908 44.24-15.122.924 4.192-5.047 12.195-8.71 17.094-1.543 2.062-3 4.012-4.206 5.869-7.469 11.144-9.348 22.229-5.291 31.212 1.382 3.068 3.303 5.532 4.999 7.706 1.457 1.868 2.833 3.633 3.353 5.189 1.03 3.08-.771 7.083-2.797 9.8-1.914 2.562-4.42 4.91-7.073 7.396-1.562 1.463-3.178 2.976-4.75 4.607-6.455 6.693-9.779 13.312-10.163 20.234-.32 5.731 1.483 10.771 3.075 15.216.369 1.033.74 2.064 1.076 3.098.018.056.037.112.057.168 1.416 4.026 1.395 7.474-.057 8.996-1.391 1.461-4.68 1.654-8.611.515-15.379-5.524-21.242-24.137-25.284-43.439-.009-.043-.019-.086-.028-.128-2.54-11.155-5.077-21.154-10.417-30.56-.044-.077-.089-.153-.136-.229-1.236-2.009-2.434-3.853-3.591-5.636-1.712-2.638-3.26-5.031-4.535-7.34 3.789-5.145 7.994-10.039 12.608-14.634 2.936-2.923 2.945-7.672.022-10.606-2.924-2.937-7.673-2.945-10.606-.022-31.617 31.179-46.337 76.299-39.6 120.153l-103.736-31.74c-3.255-.994-6.836-.38-9.574 1.646-2.737 2.025-4.372 5.269-4.372 8.674v283.773c0 4.635 2.95 8.744 7.339 10.224l27.334 9.231c3.819 1.322 8.188-.744 9.505-4.706 1.325-3.924-.781-8.18-4.706-9.505l-24.472-8.265v-275.063l204.386 62.537c-.564 1.486-.886 3.089-.886 4.77v276.485l-145.869-49.264c-3.921-1.324-8.18.781-9.505 4.706-1.325 3.924.781 8.18 4.706 9.505l152.635 51.548c2.37 3.9 6.646 6.519 11.533 6.519h48c4.888 0 9.163-2.619 11.533-6.519l213.125-71.978c4.392-1.48 7.342-5.59 7.342-10.225v-208.918c-.344-9.931-14.66-9.923-15 0v205.898l-203.5 68.727v-276.484c0-1.681-.323-3.284-.886-4.77l204.386-62.536v33.678c0 4.142 3.358 7.5 7.5 7.5zm-144.555-115.64c-3.402 1.282-8.281 1.605-14.128.867-.087-.012-.175-.021-.262-.029-7.847-.71-20.976-1.904-29.953 6.432-.216.2-.428.406-.64.615-.121-.31-.234-.653-.327-1.024-.029-.115-.061-.229-.095-.344-3.088-10.259-2.827-20.729.737-29.485 1.951-4.801 5.036-9.121 8.84-12.501 14.205 9.277 26.412 21.364 35.828 35.469zm-228.841 69.163c0-21.242 5.27-41.662 15.18-59.787.307.476.616.952.928 1.433 1.086 1.674 2.208 3.403 3.327 5.217 4.28 7.587 6.502 16.405 8.758 26.306 3.339 15.943 9.565 45.524 35.15 54.515.113.039.228.076.342.11 8.278 2.625 18.166 1.764 23.931-4.49 5.508-5.78 6.737-14.609 3.378-24.234-.374-1.144-.781-2.286-1.191-3.43-1.22-3.407-2.371-6.626-2.221-9.328.174-3.133 2.188-6.719 5.984-10.656 1.309-1.356 2.716-2.676 4.207-4.071 3.013-2.822 6.128-5.741 8.838-9.37 5.648-7.569 7.472-16.146 5.005-23.525-1.335-3.997-3.682-7.007-5.753-9.661-1.29-1.654-2.508-3.217-3.152-4.647-2.59-5.735 2.007-13.613 4.104-16.733.024-.036.048-.071.07-.107.938-1.448 2.261-3.218 3.662-5.092 5.576-7.458 12.867-17.219 11.729-27.299 20.275-.49 40.02 4.131 57.196 12.529-3.866 4.242-7.02 9.195-9.192 14.542-4.831 11.868-5.275 25.818-1.254 39.299 2.487 9.451 9.396 14.874 17.471 13.094.104-.023.206-.05.31-.078 3.462-.952 5.675-3.196 7.14-4.682.255-.258.507-.518.764-.756 3.734-3.469 11.058-3.145 18.258-2.492 10.752 1.337 18.253-.191 23.482-2.73 12.464 24.11 16.637 54.75 10.631 82.094l-41.002 12.545c4.254-7.32 7.712-15.175 8.396-24.375.006-.076.01-.153.014-.229.44-10.139-3.894-19.58-11.371-24.681-12.233-8.171-26.866-3.205-34.759-.514-12.812 4.173-25.619 8.346-38.427 12.524-14.065 4.136-27.699 10.901-32.35 32.071-1.551 7.202-1.624 14.301-1.602 21.194l-93.273-28.539c-1.796-8.494-2.708-17.211-2.708-25.967zm138.774 59.105h-27.719c-.053-1.054-.067-2.141-.072-3.212-.027-6.543-.056-13.31 1.255-19.396 2.567-11.688 7.919-16.766 22.021-20.897.073-.021.146-.044.218-.067 12.856-4.194 25.713-8.384 38.574-12.573.033-.01.065-.021.099-.032 9.325-3.18 16.575-4.606 21.573-1.269 3.093 2.11 4.963 6.608 4.782 11.485-.748 9.51-6.282 17.987-12.141 26.96-1.095 1.678-2.212 3.406-3.312 5.147zm8.622 298h-45v-283h7.508.052 29.913c.017.002.034.002.051 0h7.477v283z"/></g></g></svg>