<?xml version="1.0" encoding="iso-8859-1"?>
<!-- Generator: Adobe Illustrator 19.0.0, SVG Export Plug-In . SVG Version: 6.00 Build 0)  -->
<svg version="1.1" id="Layer_1" xmlns="http://www.w3.org/2000/svg" xmlns:xlink="http://www.w3.org/1999/xlink" x="0px" y="0px"
	 viewBox="0 0 511.997 511.997" style="enable-background:new 0 0 511.997 511.997;" xml:space="preserve">
<path style="fill:#3679A3;" d="M77.637,161.29V41.23c0-17.918,14.526-32.444,32.444-32.444h80.849
	c13.335,0,25.317,8.166,30.201,20.584l6.388,16.276c4.883,12.406,16.865,20.572,30.201,20.572h144.437
	c17.931,0,32.458,14.54,32.458,32.458v62.615"/>
<path style="fill:#2C6F91;" d="M77.637,208.43V88.37c0-17.918,14.526-32.444,32.444-32.444h80.849
	c13.335,0,25.317,8.166,30.201,20.584l6.388,16.276c4.883,12.406,16.865,20.572,30.201,20.572h144.437
	c17.931,0,32.458,14.54,32.458,32.458v62.615"/>
<path style="fill:#4288BC;" d="M77.637,238.587V112.009c0-17.918,14.526-32.444,32.444-32.444h80.849
	c13.335,0,25.317,8.166,30.201,20.584l6.388,16.276c4.883,12.406,16.865,20.572,30.201,20.572h144.437
	c17.931,0,32.458,14.54,32.458,32.458v69.131"/>
<path style="fill:#3679A3;" d="M77.637,276.616V156.555c0-17.918,14.526-32.444,32.444-32.444h80.849
	c13.335,0,25.317,8.166,30.201,20.584l6.388,16.276c4.883,12.406,16.865,20.572,30.201,20.572h144.437
	c17.931,0,32.458,14.54,32.458,32.458v62.615"/>
<path style="fill:#EAB96C;" d="M77.637,272.067v-89.275c0-17.918,14.526-32.444,32.444-32.444h80.849
	c13.335,0,25.317,8.166,30.201,20.584l6.388,16.276c4.883,12.406,16.865,20.572,30.201,20.572h144.437
	c17.931,0,32.458,14.54,32.458,32.458v31.829"/>
<path style="fill:#2C6F91;" d="M141.489,8.786h-31.407c-17.918,0-32.444,14.526-32.444,32.444v89.275h31.408V41.23
	C109.046,23.312,123.571,8.786,141.489,8.786z"/>
<path style="fill:#3679A3;" d="M141.489,79.566h-31.407c-17.918,0-32.444,14.526-32.444,32.444v89.275h31.408v-89.276
	C109.046,94.091,123.571,79.566,141.489,79.566z"/>
<path style="fill:#D8A664;" d="M141.489,150.348h-31.407c-17.918,0-32.444,14.526-32.444,32.444v89.275h31.408v-89.275
	C109.046,164.874,123.571,150.348,141.489,150.348z"/>
<rect x="56.1" y="272.073" style="fill:#E6E6E6;" width="400.06" height="229.773"/>
<path d="M456.026,263.284h-12.068l-0.004-163.922c0-23.114-18.805-41.919-41.919-41.919H257.599
	c-9.513,0-17.909-5.721-21.388-14.577l-6.394-16.276C223.47,10.437,208.157,0,190.801,0h-80.84
	C86.847,0,68.043,18.805,68.043,41.919v199.268c0,5.23,4.239,9.47,9.47,9.47c5.231,0,9.47-4.24,9.47-9.47v-57.711
	c0-12.667,10.305-22.973,22.972-22.973h80.849c9.509,0,17.905,5.724,21.386,14.574l6.392,16.285
	c6.353,16.142,21.667,26.572,39.012,26.572h144.438c12.651,0,22.944,10.272,22.984,22.914v22.434H55.971
	c-5.231,0-9.47,4.24-9.47,9.47v180.565c0,5.23,4.239,9.47,9.47,9.47s9.47-4.24,9.47-9.47V282.222h381.114v210.835H65.442v-12.382
	c0-5.23-4.239-9.47-9.47-9.47s-9.47,4.24-9.47,9.47v21.852c0,5.23,4.239,9.47,9.47,9.47h400.055c5.231,0,9.47-4.24,9.47-9.47
	V272.755C465.496,267.525,461.257,263.284,456.026,263.284z M402.032,198.996H257.594c-9.508,0-17.904-5.719-21.385-14.56
	l-6.391-16.282c-6.35-16.152-21.664-26.591-39.013-26.591h-80.849c-8.478,0-16.37,2.538-22.972,6.883v-35.751
	c0-12.667,10.305-22.973,22.972-22.973h80.849c9.509,0,17.905,5.724,21.386,14.574l6.391,16.282
	c6.35,16.152,21.664,26.59,39.012,26.59h92.691c5.231,0,9.47-4.24,9.47-9.47c0-5.23-4.239-9.47-9.47-9.47h-92.691
	c-9.509,0-17.904-5.723-21.385-14.574l-6.391-16.282c-6.35-16.152-21.664-26.591-39.013-26.591h-80.849
	c-8.478,0-16.37,2.538-22.972,6.883V41.919c0-12.67,10.307-22.979,22.977-22.979h80.84c9.513,0,17.909,5.721,21.388,14.577
	l6.394,16.276c6.345,16.154,21.66,26.591,39.015,26.591h144.438c12.67,0,22.979,10.309,22.979,22.979v35.748
	c-6.605-4.346-14.502-6.884-22.984-6.884h-23.126c-5.231,0-9.47,4.24-9.47,9.47c0,5.23,4.239,9.47,9.47,9.47h23.126
	c12.651,0,22.944,10.267,22.984,22.9v35.814C418.409,201.535,410.513,198.996,402.032,198.996z"/>
<path d="M148.548,439.002c3.656,0,7.137-2.129,8.689-5.693l10.388-23.87h33.968l10.388,23.87c2.086,4.796,7.665,6.99,12.463,4.904
	c4.796-2.087,6.992-7.667,4.904-12.463l-12.811-29.44c-0.01-0.024-0.02-0.048-0.032-0.072l-23.212-53.337
	c-1.504-3.456-4.914-5.691-8.684-5.691c-3.768,0-7.18,2.236-8.684,5.691l-23.208,53.33c-0.013,0.029-0.025,0.057-0.037,0.085
	l-12.81,29.435c-2.087,4.796,0.109,10.376,4.904,12.463C146.004,438.75,147.287,439.002,148.548,439.002z M184.609,370.413
	l8.74,20.086h-17.482L184.609,370.413z"/>
<path d="M335.166,355.226c7.061,0,13.641,3.5,17.601,9.363c2.926,4.334,8.816,5.473,13.148,2.546
	c4.335-2.928,5.474-8.815,2.547-13.148c-7.489-11.083-19.935-17.699-33.296-17.699c-22.145,0-40.161,18.016-40.161,40.16v22.394
	c0,22.145,18.016,40.161,40.161,40.161c16.176,0,30.699-9.627,37-24.525c2.038-4.817-0.216-10.373-5.032-12.411
	c-4.815-2.037-10.374,0.215-12.411,5.033c-3.331,7.874-11.007,12.963-19.555,12.963c-11.701,0-21.221-9.519-21.221-21.221v-22.394
	C313.946,364.745,323.466,355.226,335.166,355.226z"/>
<path d="M271.911,399.563c5.231,0,9.47-4.24,9.47-9.47s-4.239-9.47-9.47-9.47h-25.254c-5.231,0-9.47,4.24-9.47,9.47
	s4.239,9.47,9.47,9.47H271.911z"/>
<g>
</g>
<g>
</g>
<g>
</g>
<g>
</g>
<g>
</g>
<g>
</g>
<g>
</g>
<g>
</g>
<g>
</g>
<g>
</g>
<g>
</g>
<g>
</g>
<g>
</g>
<g>
</g>
<g>
</g>
</svg>
