<?xml version="1.0" encoding="iso-8859-1"?>
<!-- Generator: Adobe Illustrator 19.0.0, SVG Export Plug-In . SVG Version: 6.00 Build 0)  -->
<svg version="1.1" id="Capa_1" xmlns="http://www.w3.org/2000/svg" xmlns:xlink="http://www.w3.org/1999/xlink" x="0px" y="0px"
	 viewBox="0 0 490.667 490.667" style="enable-background:new 0 0 490.667 490.667;" xml:space="preserve">
<path style="fill:#009688;" d="M466.219,237.781L231.552,3.115C229.548,1.115,226.831-0.005,224,0H32
	c-5.891-0.011-10.675,4.757-10.686,10.648c-0.005,2.84,1.123,5.565,3.134,7.571l227.136,227.115L24.448,472.448
	c-4.171,4.16-4.179,10.914-0.019,15.085c2.006,2.011,4.731,3.139,7.571,3.134h192c2.831,0.005,5.548-1.115,7.552-3.115
	l234.667-234.667c4.171-4.16,4.179-10.914,0.019-15.085C466.231,237.794,466.225,237.788,466.219,237.781z"/>
<g>
</g>
<g>
</g>
<g>
</g>
<g>
</g>
<g>
</g>
<g>
</g>
<g>
</g>
<g>
</g>
<g>
</g>
<g>
</g>
<g>
</g>
<g>
</g>
<g>
</g>
<g>
</g>
<g>
</g>
</svg>
